<svg xmlns="http://www.w3.org/2000/svg" viewBox="0 0 100 100" width="100" height="100">
  <circle cx="50" cy="50" r="46" fill="#ec4899" />
  <!-- Flask shape -->
  <path d="M 44,25 L 56,25 M 46,25 L 46,38 L 28,68 C 25,73 29,78 35,78 L 65,78 C 71,78 75,73 72,68 L 54,38 L 54,25" fill="none" stroke="#ffffff" stroke-width="4.5" stroke-linecap="round" stroke-linejoin="round" />
  <!-- Beaker liquid level -->
  <path d="M 33,60 C 38,58 42,62 48,60 C 54,58 58,62 67,60 L 70,65 C 71.5,67.5 70,70 67,70 L 33,70 C 30,70 28.5,67.5 30,65 Z" fill="#ffffff" opacity="0.75" />
  <!-- Chemical Bubbles -->
  <circle cx="48" cy="45" r="3.5" fill="#ffffff" opacity="0.9" />
  <circle cx="53" cy="53" r="2.5" fill="#ffffff" opacity="0.9" />
</svg>
